<?xml version="1.0" encoding="UTF-8"?>
<svg version="1.1" xmlns="http://www.w3.org/2000/svg" width="100" height="100">
<path d="M0 0 C9.9 0 19.8 0 30 0 C30.495 1.98 30.495 1.98 31 4 C31.59538574 3.98952637 32.19077148 3.97905273 32.80419922 3.96826172 C35.49442343 3.92676051 38.18458037 3.90069296 40.875 3.875 C41.81214844 3.85824219 42.74929687 3.84148438 43.71484375 3.82421875 C45.05869141 3.81455078 45.05869141 3.81455078 46.4296875 3.8046875 C47.25710449 3.79421387 48.08452148 3.78374023 48.93701172 3.77294922 C51 4 51 4 53 6 C53.19855525 8.73005123 53.2727178 11.35866732 53.25878906 14.08984375 C53.2622937 14.92573029 53.26579834 15.76161682 53.26940918 16.62283325 C53.27823414 19.39447254 53.27237468 22.16585797 53.265625 24.9375 C53.26697143 26.85799204 53.26891178 28.77848374 53.27142334 30.69897461 C53.27437564 34.72740926 53.27007356 38.75575532 53.26074219 42.78417969 C53.2493476 47.95630443 53.25590651 53.12822162 53.26788712 58.30033875 C53.27510286 62.26706516 53.2728191 66.2337421 53.26763153 70.20046997 C53.26629424 72.10792058 53.2679455 74.01537563 53.27259064 75.92282104 C53.27765119 78.58538772 53.26995235 81.24761496 53.25878906 83.91015625 C53.26283752 84.70398712 53.26688599 85.49781799 53.27105713 86.31570435 C53.22852828 91.77147172 53.22852828 91.77147172 51 94 C48.03955078 94.25396729 48.03955078 94.25396729 44.1953125 94.25878906 C43.49597595 94.2622937 42.7966394 94.26579834 42.07611084 94.26940918 C39.75897362 94.27822876 37.44214045 94.2723767 35.125 94.265625 C33.51839133 94.26697159 31.91178305 94.26891207 30.30517578 94.27142334 C26.93583298 94.2743749 23.56659613 94.27007597 20.19726562 94.26074219 C15.87260506 94.24934758 11.54819271 94.25590689 7.22354126 94.26788712 C3.9053357 94.27510488 0.58718925 94.27281819 -2.73101807 94.26763153 C-4.325867 94.2662948 -5.92072125 94.26794358 -7.51556396 94.27259064 C-9.74229198 94.27765456 -11.96861476 94.26994788 -14.1953125 94.25878906 C-15.46391113 94.25719788 -16.73250977 94.25560669 -18.03955078 94.25396729 C-21 94 -21 94 -23 92 C-23.19855525 89.26994877 -23.2727178 86.64133268 -23.25878906 83.91015625 C-23.26404602 82.65632645 -23.26404602 82.65632645 -23.26940918 81.37716675 C-23.27823414 78.60552746 -23.27237468 75.83414203 -23.265625 73.0625 C-23.26697143 71.14200796 -23.26891178 69.22151626 -23.27142334 67.30102539 C-23.27437564 63.27259074 -23.27007356 59.24424468 -23.26074219 55.21582031 C-23.2493476 50.04369557 -23.25590651 44.87177838 -23.26788712 39.69966125 C-23.27510286 35.73293484 -23.2728191 31.7662579 -23.26763153 27.79953003 C-23.26629424 25.89207942 -23.2679455 23.98462437 -23.27259064 22.07717896 C-23.27765119 19.41461228 -23.26995235 16.75238504 -23.25878906 14.08984375 C-23.26283752 13.29601288 -23.26688599 12.50218201 -23.27105713 11.68429565 C-23.22852828 6.22852828 -23.22852828 6.22852828 -21 4 C-18.93701172 3.77294922 -18.93701172 3.77294922 -16.4296875 3.8046875 C-15.53378906 3.81113281 -14.63789063 3.81757812 -13.71484375 3.82421875 C-12.30912109 3.84935547 -12.30912109 3.84935547 -10.875 3.875 C-9.93011719 3.88402344 -8.98523437 3.89304687 -8.01171875 3.90234375 C-5.67422708 3.92595478 -3.33723877 3.95888484 -1 4 C-0.67 2.68 -0.34 1.36 0 0 Z M3 4 C3 6.64 3 9.28 3 12 C5.44986932 14.44986932 6.137078 14.25631311 9.5 14.265625 C10.8303125 14.26949219 10.8303125 14.26949219 12.1875 14.2734375 C13.115625 14.26570313 14.04375 14.25796875 15 14.25 C16.3921875 14.26160156 16.3921875 14.26160156 17.8125 14.2734375 C18.699375 14.27085938 19.58625 14.26828125 20.5 14.265625 C21.72203125 14.26224121 21.72203125 14.26224121 22.96875 14.25878906 C25.22630451 14.18174293 25.22630451 14.18174293 27 12 C27 9.36 27 6.72 27 4 C19.08 4 11.16 4 3 4 Z M-11 14 C-11 36.44 -11 58.88 -11 82 C6.16 82 23.32 82 41 82 C41 59.56 41 37.12 41 14 C37.7 14 34.4 14 31 14 C30.34 14.99 29.68 15.98 29 17 C26.234375 17.38818359 26.234375 17.38818359 22.75 17.3984375 C20.87828125 17.40423828 20.87828125 17.40423828 18.96875 17.41015625 C17.00421875 17.39275391 17.00421875 17.39275391 15 17.375 C13.6903125 17.38660156 12.380625 17.39820313 11.03125 17.41015625 C9.7834375 17.40628906 8.535625 17.40242188 7.25 17.3984375 C6.10015625 17.39505371 4.9503125 17.39166992 3.765625 17.38818359 C2.39664063 17.19603271 2.39664063 17.19603271 1 17 C0.34 16.01 -0.32 15.02 -1 14 C-4.3 14 -7.6 14 -11 14 Z " fill="#FFFFFF" transform="translate(35,2)"/>
<path d="M0 0 C1 1 1 1 1.125 4.75 C1.09051205 7.94588316 0.77827069 10.88691725 0 14 C0.99 14.598125 1.98 15.19625 3 15.8125 C3.99 16.534375 4.98 17.25625 6 18 C6 18.99 6 19.98 6 21 C-0.6 21 -7.2 21 -14 21 C-13 17 -13 17 -10.4375 15.25 C-9.2309375 14.63125 -9.2309375 14.63125 -8 14 C-8.33 13.319375 -8.66 12.63875 -9 11.9375 C-10.20153027 8.40800482 -10.34320345 5.7065973 -10 2 C-7.70416093 -2.32157943 -4.21625407 -0.93694535 0 0 Z " fill="#FFFFFF" transform="translate(54,29)"/>
<path d="M0 0 C10.56 0 21.12 0 32 0 C32 1.32 32 2.64 32 4 C21.44 4 10.88 4 0 4 C0 2.68 0 1.36 0 0 Z " fill="#FFFFFF" transform="translate(34,58)"/>
<path d="M0 0 C8.58 0 17.16 0 26 0 C26 1.32 26 2.64 26 4 C17.42 4 8.84 4 0 4 C0 2.68 0 1.36 0 0 Z " fill="#FFFFFF" transform="translate(34,68)"/>
</svg>
